<svg width="219" height="219" version="1.1" xmlns="http://www.w3.org/2000/svg" xmlns:xlink="http://www.w3.org/1999/xlink"><path d="M142.35 59.13L143.88 62.20Q143.44 64.61 131.18 77.09L131.18 77.09Q135.56 81.91 135.56 89.35L135.56 89.35Q133.59 93.29 124.39 84.31L124.39 84.31Q113.44 92.20 110.16 93.51L110.16 93.51Q106.22 95.27 102.49 95.48L102.49 95.48L102.93 94.17L117.60 81.47Q118.92 80.37 119.79 79.28L119.79 79.28L106.87 66.36L106.87 65.04Q114.32 66.14 124.39 73.36L124.39 73.36Q131.62 61.10 131.62 54.31L131.62 54.31Q135.56 53.22 141.04 57.82L141.04 57.82Q141.91 58.69 142.35 59.13L142.35 59.13ZM152.42 97.89L152.42 100.30L133.59 115.19Q143.66 123.73 143.66 130.96L143.66 130.96Q143.66 134.69 142.13 134.90L142.13 134.90Q141.25 135.12 138.85 135.12L138.85 135.12Q135.78 132.71 126.58 122.20L126.58 122.20Q125.92 121.33 125.05 120.45L125.05 120.45Q112.13 126.14 107.53 127.02L107.53 127.02Q105.12 127.24 102.93 127.24L102.93 127.24L102.93 125.92L119.57 116.95L121.33 115.63L111.03 102.93L111.03 101.40Q114.97 101.40 127.90 110.59L127.90 110.59Q139.72 100.08 141.69 90.01L141.69 90.01L144.76 89.79Q150.67 94.17 152.42 97.89L152.42 97.89ZM189.22 189.22L189.22 189.22Q183.74 191.63 164.25 191.63L164.25 191.63Q149.36 191.63 143.66 189.00L143.66 189.00Q133.15 184.40 101.62 144.54L101.62 144.54Q92.64 133.37 90.67 130.96L90.67 130.96Q79.72 171.26 36.35 183.96L36.35 183.96Q22.12 187.90 16.64 188.34L16.64 188.34Q13.36 188.34 12.26 186.81L12.26 186.81L35.04 176.29Q67.23 160.53 75.56 141.04L75.56 141.04Q86.72 114.76 87.16 67.89L87.16 67.89Q87.16 63.51 87.16 57.16L87.16 57.16Q85.41 57.16 71.39 59.35L71.39 59.35Q58.47 61.32 51.90 56.06L51.90 56.06Q52.34 54.31 54.31 53.87L54.31 53.87Q55.19 53.66 64.17 52.56L64.17 52.56Q71.61 51.68 86.29 49.06L86.29 49.06Q87.16 38.98 85.41 30.22L85.41 30.22Q83.66 22.78 79.94 17.74L79.94 17.74Q80.15 15.99 83.00 14.67L83.00 14.67Q91.54 15.33 98.99 19.93L98.99 19.93Q100.74 20.81 101.62 21.90L101.62 21.90Q103.37 23.87 99.86 34.16L99.86 34.16Q97.24 42.27 97.24 45.77L97.24 45.77Q101.18 45.77 113.00 41.61L113.00 41.61Q125.49 37.23 131.62 41.83L131.62 41.83Q132.71 42.49 133.59 43.58L133.59 43.58Q133.59 45.99 130.52 47.09L130.52 47.09Q125.27 49.27 105.78 53.22L105.78 53.22L97.24 54.97L96.58 59.13L96.36 59.35L92.86 117.82Q92.64 121.11 92.20 124.17L92.20 124.17Q118.26 148.04 127.90 155.27L127.90 155.27Q144.32 167.53 160.97 174.54L160.97 174.54Q181.77 183.74 183.74 184.84L183.74 184.84Q189.44 187.90 189.22 189.22ZM70.52 73.36L70.52 73.36L70.08 75.77L62.20 83.88Q66.36 85.41 69.64 91.10L69.64 91.10L70.96 94.61L70.74 97.24Q70.52 97.89 69.86 98.55L69.86 98.55Q65.26 98.55 58.25 92.64L58.25 92.64Q56.94 91.54 56.28 90.89L56.28 90.89Q45.55 99.64 44.68 100.08L44.68 100.08Q38.11 104.24 31.97 104.24L31.97 104.24L32.19 102.93Q44.68 92.64 46.21 90.89L46.21 90.89Q48.62 88.48 50.59 85.85L50.59 85.85L38.11 75.34L37.89 75.12L37.89 73.80Q42.92 74.46 54.31 79.94L54.31 79.94Q57.60 74.02 58.47 66.14L58.47 66.14L59.57 65.70Q65.26 66.36 69.42 71.61L69.42 71.61Q70.08 72.49 70.52 73.36ZM69.64 109.28L69.64 109.28L69.20 111.91Q63.95 115.85 60.88 121.11L60.88 121.11Q64.17 123.30 67.89 130.52L67.89 130.52L69.64 135.34L69.42 137.53L68.33 138.63Q67.45 138.85 66.58 138.63L66.58 138.63Q63.51 137.09 55.63 129.43L55.63 129.43Q54.75 128.77 54.09 128.12L54.09 128.12L41.61 137.97Q34.38 142.79 27.81 143.01L27.81 143.01L27.81 141.91L44.46 127.24Q46.65 125.05 48.18 123.08L48.18 123.08L36.57 112.57L36.57 109.94Q40.30 110.59 51.25 115.63L51.25 115.63Q52.34 116.07 53.00 116.51L53.00 116.51Q56.50 111.91 57.38 102.71L57.38 102.71L58.91 101.62Q64.61 103.15 69.64 109.28Z" stroke="#000" fill="black" /></svg>