<svg width="219" height="219" version="1.1" xmlns="http://www.w3.org/2000/svg" xmlns:xlink="http://www.w3.org/1999/xlink"><path d="M173.89 59.40L173.89 59.40Q173.89 60.93 169.29 63.12L169.29 63.12Q161.40 65.09 148.26 74.07L148.26 74.07L146.07 74.29L151.99 57.65Q152.42 56.55 149.14 54.58L149.14 54.58Q132.50 54.58 100.08 61.81L100.08 61.81Q104.24 63.56 105.78 65.97L105.78 65.97L104.90 75.17L104.90 75.39Q106.65 75.17 117.38 72.32L117.38 72.32Q127.24 69.91 132.50 74.73L132.50 74.73Q132.50 77.58 111.25 81.30L111.25 81.30L104.46 82.61Q104.46 89.40 108.19 91.59L108.19 91.59Q111.25 93.13 119.79 92.69L119.79 92.69Q123.30 92.47 125.05 92.03L125.05 92.03Q130.09 90.50 136.44 79.55L136.44 79.55Q136.88 78.45 137.31 77.80L137.31 77.80L138.19 78.02Q139.72 86.56 142.57 90.72L142.57 90.72Q142.57 96.63 130.31 99.70L130.31 99.70Q115.63 103.64 105.34 99.04L105.34 99.04Q101.83 97.51 100.08 94.88L100.08 94.88Q98.11 91.59 97.67 84.59L97.67 84.59L84.75 87.21Q80.37 87.43 77.53 85.90L77.53 85.90L74.90 83.93L74.90 83.71L76.21 82.18L97.02 78.67Q97.24 78.45 97.45 78.45L97.45 78.45Q97.45 69.26 95.48 62.47L95.48 62.47Q93.08 62.69 80.15 66.63L80.15 66.63Q73.80 68.60 69.20 68.60L69.20 68.60Q67.89 74.29 66.36 93.56L66.36 93.56Q66.14 97.94 65.70 101.23L65.70 101.23Q61.32 131.67 56.94 143.93L56.94 143.93Q50.59 162.11 37.01 174.59L37.01 174.59Q25.62 185.33 18.83 187.52L18.83 187.52Q15.33 188.83 11.61 188.83L11.61 188.83L11.39 188.17L12.04 187.08Q14.67 184.01 28.69 168.90L28.69 168.90Q42.05 154.45 47.52 139.34L47.52 139.34Q53.44 122.69 55.19 95.54L55.19 95.54Q56.94 68.38 50.37 59.40L50.37 59.40Q50.37 56.99 51.68 56.55L51.68 56.55Q55.41 56.55 64.82 60.93L64.82 60.93Q66.14 61.37 67.01 61.81L67.01 61.81L101.40 56.12Q102.49 55.90 103.37 55.90L103.37 55.90L104.03 55.24L102.05 33.78Q100.74 25.67 97.45 19.76L97.45 19.76Q97.45 17.79 99.43 16.70L99.43 16.70Q110.16 17.13 116.07 23.27L116.07 23.27L114.97 29.18L136.00 24.58Q145.42 23.27 147.61 26.99L147.61 26.99Q147.61 32.68 125.49 34.22L125.49 34.22Q117.38 34.87 114.32 34.43L114.32 34.43Q112.13 45.17 112.13 53.49L112.13 53.49Q114.32 53.27 139.06 49.55L139.06 49.55Q150.45 47.79 158.34 48.01L158.34 48.01Q168.19 53.05 173.89 59.40ZM141.91 145.25L141.91 145.25Q138.63 147.44 138.41 147.66L138.41 147.66Q135.12 146.78 132.06 142.18L132.06 142.18L93.29 145.69L92.20 150.72L92.20 150.94Q88.69 150.72 86.29 145.91L86.29 145.91Q85.85 144.81 83.66 137.15L83.66 137.15Q79.06 122.03 73.58 112.40L73.58 112.40Q73.58 110.87 74.24 110.43L74.24 110.43Q81.69 110.43 84.53 112.18L84.53 112.18Q89.57 110.87 120.23 105.17L120.23 105.17L121.98 104.73L139.50 101.01L139.72 101.01Q143.88 100.57 151.33 105.39L151.33 105.39Q156.80 109.11 156.80 111.74L156.80 111.74Q156.80 112.62 152.86 116.78L152.86 116.78Q152.21 117.44 151.99 117.87L151.99 117.87Q150.01 121.38 145.63 135.83L145.63 135.83Q143.88 141.53 141.91 145.25ZM140.38 112.40L140.38 112.40L139.28 109.99Q132.93 107.58 121.11 110.43L121.11 110.43Q116.95 111.30 114.54 111.74L114.54 111.74L119.14 115.68L118.70 121.16L118.70 121.38Q129.43 118.97 130.74 123.13L130.74 123.13L130.96 124.22Q129.21 125.32 121.11 127.07L121.11 127.07Q119.36 127.51 118.04 127.95L118.04 127.95L117.38 136.71L130.31 136.05Q131.62 136.27 132.71 136.49L132.71 136.49Q136.44 130.79 139.72 115.46L139.72 115.46Q140.16 113.71 140.38 112.40ZM93.08 141.09L108.84 138.46L108.62 129.70L108.62 129.48L97.45 130.58L95.70 128.17L95.70 127.95Q97.89 126.63 108.19 124.22L108.19 124.22L107.09 114.59Q106.87 113.71 106.65 113.06L106.65 113.06Q91.98 116.12 87.82 117.44L87.82 117.44L92.42 139.34Q92.64 140.21 93.08 141.09L93.08 141.09ZM48.40 190.58L48.40 190.58L48.62 189.27Q60.44 187.95 77.53 187.52L77.53 187.52Q75.56 176.78 67.89 160.58L67.89 160.58Q67.89 159.05 68.55 158.61L68.55 158.61L80.59 159.92L80.81 159.92Q82.13 159.92 84.31 159.48L84.31 159.48L132.50 152.69Q139.28 151.60 145.20 150.07L145.20 150.07Q155.05 153.13 161.62 159.48L161.62 159.48Q161.62 162.55 158.34 166.71L158.34 166.71Q157.02 168.24 156.37 169.56L156.37 169.56Q154.61 172.40 151.11 181.38L151.11 181.38L171.70 179.19L171.91 179.19Q181.33 179.19 187.68 186.20L187.68 186.20Q192.06 190.80 188.78 192.11L188.78 192.11Q188.12 192.33 187.03 192.33L187.03 192.33Q132.28 190.14 114.32 190.80L114.32 190.80Q99.21 191.46 85.63 193.21L85.63 193.21L63.51 197.37L61.98 197.37Q56.72 197.81 52.12 194.52L52.12 194.52Q50.15 192.77 48.40 190.58ZM143.23 158.17L143.23 158.17Q138.85 156.64 128.33 158.39L128.33 158.39Q125.92 158.83 124.17 158.83L124.17 158.83Q127.90 159.92 129.43 163.64L129.43 163.64Q128.12 165.83 121.11 182.48L121.11 182.48Q120.67 183.35 120.45 184.45L120.45 184.45L138.19 182.70L142.79 166.27Q143.88 161.02 143.23 158.17ZM116.95 160.36L116.95 160.36L99.21 162.99Q103.59 178.76 104.03 183.14L104.03 183.14Q104.03 184.67 104.03 185.76L104.03 185.76Q105.12 185.54 112.35 185.11L112.35 185.11Q113.88 184.89 115.19 184.67L115.19 184.67Q119.36 166.49 116.95 160.36ZM85.19 186.86L98.77 186.20Q96.36 182.70 95.05 171.75L95.05 171.75Q94.61 166.93 93.73 164.30L93.73 164.30Q84.75 165.62 81.69 166.71L81.69 166.71L85.19 186.86Z" stroke="#000" fill="black" /></svg>