<?xml version="1.0" encoding="UTF-8" standalone="no"?>
        <svg 
    viewBox="9.15 -79.87499999999999 281.25 54.67499999999999"
    width="272.1"
    height="134.54999999999998"
   xmlns="http://www.w3.org/2000/svg"
   xmlns:svg="http://www.w3.org/2000/svg">
   <path d="M14.40 9.75L14.40 9.75L13.50 9.75L10.50 8.40Q9.15 6.60 9.15 4.05L9.15 4.05L9.15 3.15Q15-12.75 16.27-27.52Q17.55-42.30 18.60-67.50L18.60-67.50Q19.35-86.25 19.35-93.75L19.35-93.75L19.20-97.95Q19.20-102.30 24.07-102.45Q28.95-102.60 66-102.60L66-102.60L65.70-117.15L67.20-120.15Q69.45-121.95 72.30-121.95L72.30-121.95L72.75-121.95L75.75-120.45Q77.40-118.65 77.40-116.10L77.40-116.10L77.25-114.60L106.50-115.20Q108.60-114.30 109.35-112.20L109.35-112.20L109.35-109.35Q108.60-107.25 106.50-106.35L106.50-106.35L77.25-106.05L77.55-102.60L134.40-102.60Q137.85-102.60 137.85-99.45L137.85-99.45Q137.85-98.40 137.40-96.90L137.40-96.90Q135.60-90 131.25-83.70L131.25-83.70Q129.75-82.80 128.10-82.80L128.10-82.80Q125.55-82.80 124.20-85.65L124.20-85.65L124.20-88.05L126.90-93.75L31.35-93.75Q28.65-41.10 27.38-24.90Q26.10-8.70 19.05 8.10L19.05 8.10Q16.95 9.75 14.40 9.75ZM136.80 8.55L136.80 8.55L34.80 8.55Q32.85 7.65 31.95 5.55L31.95 5.55L31.95 3.15L33.15 1.20Q38.10-0.45 43.65-0.45L43.65-0.45L46.80-0.30L46.95-13.50L46.80-15Q46.80-18.30 51.15-18.30L51.15-18.30L124.35-18Q128.10-18 128.70-15.30L128.70-15.30Q128.85-13.95 128.85-10.95L128.85-10.95Q128.85-6.90 128.55 0.30L128.55 0.30Q130.20 0 131.70 0L131.70 0Q135.60 0 138.90 1.80L138.90 1.80Q139.80 2.85 139.80 4.65L139.80 4.65Q139.80 7.20 136.80 8.55ZM79.80 0.30L90.60 0.60L90.60-9.15L80.10-9.60L79.80 0.30ZM102.15 0.60L117.15 0.60L117.15-9.45L102.15-9.45L102.15 0.60ZM58.50 0L68.40 0.30L68.70-9.60L57.90-9.60L58.50 0ZM120.90-23.25L53.10-22.95Q47.10-22.95 47.10-25.50L47.10-25.50L47.10-26.70Q47.10-31.35 46.20-51.75L46.20-51.75L46.20-52.65Q46.20-58.35 49.65-58.35L49.65-58.35L50.85-58.20L122.10-58.50Q126.75-58.35 126.75-53.70L126.75-53.70L126.60-51.75L126.75-38.85Q126.75-28.05 126.30-26.10L126.30-26.10Q125.70-23.25 120.90-23.25L120.90-23.25ZM57.90-35.85L57.90-31.50L80.10-31.80L79.80-35.55L57.90-35.85ZM91.80-31.80L114.60-31.80L114.90-36.15L91.20-35.85L91.80-31.80ZM57.60-44.40L79.50-44.10L79.50-49.05L57.60-49.65L57.60-44.40ZM90.90-49.35L90.90-44.40L114.90-44.70L114.90-49.35L90.90-49.35ZM113.70-60.45L88.95-59.85Q81-60.15 73.35-60.90Q65.70-61.65 60.90-65.92Q56.10-70.20 55.50-75.45L55.50-75.45L42-74.85Q40.05-75.75 39.15-77.85L39.15-77.85L39.15-80.10Q40.35-82.50 42.60-83.40L42.60-83.40L54.60-84L54.45-85.50Q54.45-88.35 56.40-90.60L56.40-90.60Q57.60-91.35 59.25-91.35L59.25-91.35Q61.95-91.35 63.15-88.35L63.15-88.35L63.15-84L114.90-86.55Q116.85-85.65 117.75-83.70L117.75-83.70L117.75-81.30Q116.85-79.20 114.90-78.30L114.90-78.30L64.35-75.75Q65.85-71.85 68.70-70.80L68.70-70.80Q74.10-68.55 93.75-68.55L93.75-68.55Q100.80-68.55 113.40-69L113.40-69Q115.65-68.10 116.55-65.70L116.55-65.70L116.55-63.45Q115.65-61.35 113.70-60.45L113.70-60.45ZM273 12.60L273 12.60Q267.45 10.50 262.57 6.83Q257.70 3.15 253.13-0.75Q248.55-4.65 243.90-8.92Q239.25-13.20 219.60-33.90L219.60-33.90Q216.60-28.20 213.82-22.50Q211.05-16.80 202.72-6.67Q194.40 3.45 189.45 6.83Q184.50 10.20 178.65 11.10L178.65 11.10L175.80 9.60Q174.30 7.95 174.30 4.35L174.30 4.35L175.80 1.50Q185.40-2.70 192.38-10.80Q199.35-18.90 205.80-30.75L205.80-30.75Q216.30-49.95 219.30-90.60L219.30-90.60L172.80-90.45L169.95-91.95Q168.45-93.75 168.45-97.20L168.45-97.20L169.95-100.20L173.40-102L219.60-102.30Q220.05-105.15 220.05-108.30L220.05-108.30L219.90-112.65Q219.90-116.55 221.40-119.85L221.40-119.85Q223.35-121.35 226.95-121.35L226.95-121.35L229.80-119.85Q231.45-115.80 231.45-109.20L231.45-109.20Q231.45-105.90 231-102L231-102L276.60-102.90L279.75-101.10Q281.25-99 281.25-95.55L281.25-95.55L279.75-92.55Q275.40-90.30 270.15-90.30L270.15-90.30Q267.75-90.45 230.70-90.45L230.70-90.45Q228.60-64.65 224.55-46.80L224.55-46.80Q228.60-41.10 233.47-36Q238.35-30.90 244.05-24.60Q249.75-18.30 258.60-10.88Q267.45-3.45 270.82-1.27Q274.20 0.90 277.80 2.70L277.80 2.70Q279.15 4.35 279.15 7.95L279.15 7.95L277.80 10.80Q275.70 12.30 273 12.60ZM250.05-27.75L250.05-27.75L246.90-29.40Q246-30.60 246-33.30L246-33.30Q250.05-37.35 254.40-40.65L254.40-40.65Q251.25-42 249.15-45L249.15-45L249.15-47.55Q250.05-49.65 252.15-50.55L252.15-50.55L254.40-50.55L263.10-45.60Q266.85-48.15 269.40-51.98Q271.95-55.80 274.80-58.80L274.80-58.80L277.50-58.80Q279.45-57.90 280.35-55.80L280.35-55.80L280.35-53.10Q278.55-49.65 275.93-46.57Q273.30-43.50 270.75-40.35L270.75-40.35L275.70-37.95Q276.60-36.45 276.60-34.80L276.60-34.80Q276.60-32.25 273.60-30.90L273.60-30.90L271.05-30.90L262.35-34.95Q256.50-30.60 250.05-27.75ZM174.90-30.30L174.90-30.30L171.75-32.10Q170.85-33.30 170.85-35.85L170.85-35.85Q172.50-38.85 175.35-40.13Q178.20-41.40 180.45-43.80L180.45-43.80Q176.70-46.20 174.30-49.35L174.30-49.35L174.30-51.75Q175.20-53.70 177.30-54.60L177.30-54.60L179.85-54.60L188.55-49.05Q191.40-51.75 193.65-54.82Q195.90-57.90 198.75-60.15L198.75-60.15L201.15-60.15Q203.10-59.40 204-57.30L204-57.30L204-54.30L195.60-43.50Q199.05-42.30 200.85-39.15L200.85-39.15L200.85-36.75Q199.95-34.65 197.85-33.90L197.85-33.90L195.60-33.90Q191.70-35.55 188.55-37.95L188.55-37.95Q179.85-31.80 174.90-30.30ZM243-55.80L243-55.80L239.85-57.60Q238.95-58.80 238.95-61.35L238.95-61.35Q243.90-65.70 249.45-70.80L249.45-70.80L243.30-74.85Q242.40-76.05 242.40-77.70L242.40-77.70Q242.40-80.25 245.40-81.60L245.40-81.60L248.25-81.60L255.90-77.25Q259.65-83.10 265.20-87.45L265.20-87.45L268.05-87.45Q270.15-86.55 271.05-84.45L271.05-84.45L271.05-82.20L263.10-71.70Q266.25-69.30 269.85-67.50L269.85-67.50Q270.75-66.30 270.75-64.65L270.75-64.65Q270.60-61.20 265.65-60.45L265.65-60.45Q260.85-61.95 256.80-65.25L256.80-65.25Q249.30-57.75 243-55.80ZM174.60-60.75L174.60-60.75Q172.50-61.65 171.75-63.75L171.75-63.75L171.75-66L172.80-68.10L180.75-73.95Q176.70-76.65 173.70-80.40L173.70-80.40L173.70-83.10Q174.60-85.05 176.70-85.95L176.70-85.95L178.95-85.95Q183.45-82.20 188.55-79.50L188.55-79.50L195.60-87.75Q196.95-88.95 199.05-88.95L199.05-88.95Q201.60-88.95 202.95-85.95L202.95-85.95L202.95-83.70Q199.65-78.90 195.90-74.25L195.90-74.25Q199.35-72.45 201.75-69.30L201.75-69.30L201.75-66.60Q200.85-64.65 198.75-63.75L198.75-63.75L196.50-63.75L188.55-68.40Q185.10-66 181.88-63.67Q178.65-61.35 174.60-60.75Z"/>
    </svg>
        